<?xml version="1.0" encoding="UTF-8"?>
<svg xmlns="http://www.w3.org/2000/svg" version="1.1" width="300" height="300" viewBox="0 0 300 300"><rect x="0" y="0" width="300" height="300" fill="#ffffff"/><g transform="scale(9.091)"><g transform="translate(0,0)"><path fill-rule="evenodd" d="M10 0L10 2L11 2L11 0ZM12 0L12 1L13 1L13 2L12 2L12 4L13 4L13 2L14 2L14 1L13 1L13 0ZM19 0L19 1L18 1L18 2L19 2L19 1L20 1L20 2L21 2L21 3L20 3L20 4L19 4L19 3L16 3L16 4L17 4L17 5L20 5L20 8L17 8L17 9L19 9L19 10L15 10L15 12L13 12L13 11L12 11L12 13L13 13L13 14L11 14L11 15L10 15L10 13L11 13L11 12L9 12L9 11L8 11L8 13L7 13L7 12L6 12L6 13L7 13L7 14L5 14L5 15L7 15L7 16L5 16L5 17L3 17L3 16L4 16L4 14L3 14L3 13L5 13L5 12L3 12L3 11L2 11L2 12L1 12L1 13L2 13L2 14L0 14L0 19L1 19L1 17L3 17L3 20L2 20L2 21L3 21L3 20L4 20L4 21L5 21L5 23L3 23L3 24L2 24L2 25L3 25L3 24L5 24L5 25L7 25L7 24L6 24L6 23L8 23L8 24L9 24L9 25L8 25L8 27L9 27L9 25L11 25L11 26L12 26L12 27L13 27L13 25L16 25L16 26L15 26L15 27L14 27L14 28L12 28L12 29L10 29L10 28L11 28L11 27L10 27L10 28L8 28L8 33L9 33L9 31L10 31L10 30L12 30L12 29L16 29L16 30L15 30L15 31L16 31L16 30L20 30L20 32L22 32L22 33L25 33L25 29L27 29L27 30L26 30L26 31L27 31L27 32L26 32L26 33L27 33L27 32L28 32L28 33L29 33L29 32L28 32L28 30L30 30L30 32L31 32L31 33L32 33L32 32L31 32L31 31L32 31L32 30L30 30L30 29L29 29L29 28L31 28L31 29L32 29L32 28L33 28L33 27L32 27L32 26L33 26L33 23L31 23L31 21L30 21L30 20L31 20L31 19L32 19L32 20L33 20L33 19L32 19L32 18L33 18L33 16L32 16L32 14L33 14L33 13L32 13L32 12L31 12L31 11L30 11L30 12L28 12L28 13L30 13L30 12L31 12L31 13L32 13L32 14L31 14L31 15L27 15L27 17L26 17L26 18L27 18L27 19L26 19L26 20L27 20L27 19L28 19L28 18L27 18L27 17L29 17L29 18L30 18L30 17L29 17L29 16L32 16L32 18L31 18L31 19L29 19L29 20L28 20L28 21L29 21L29 22L27 22L27 21L25 21L25 19L24 19L24 20L22 20L22 19L21 19L21 20L22 20L22 21L21 21L21 24L20 24L20 23L18 23L18 24L17 24L17 21L19 21L19 22L20 22L20 21L19 21L19 20L20 20L20 19L19 19L19 18L20 18L20 17L21 17L21 18L22 18L22 17L21 17L21 16L22 16L22 15L23 15L23 14L24 14L24 16L26 16L26 14L27 14L27 13L26 13L26 12L25 12L25 11L28 11L28 10L27 10L27 9L28 9L28 8L27 8L27 9L26 9L26 8L25 8L25 9L26 9L26 10L24 10L24 13L23 13L23 14L20 14L20 13L21 13L21 12L22 12L22 11L21 11L21 12L20 12L20 13L19 13L19 10L20 10L20 8L22 8L22 7L23 7L23 5L24 5L24 7L25 7L25 5L24 5L24 4L25 4L25 3L24 3L24 4L23 4L23 2L21 2L21 1L24 1L24 0L21 0L21 1L20 1L20 0ZM8 1L8 2L9 2L9 1ZM15 1L15 2L16 2L16 1ZM8 3L8 4L9 4L9 5L8 5L8 7L9 7L9 8L6 8L6 9L7 9L7 10L5 10L5 8L0 8L0 9L2 9L2 10L3 10L3 9L4 9L4 11L7 11L7 10L9 10L9 9L10 9L10 11L11 11L11 9L12 9L12 10L14 10L14 9L16 9L16 8L15 8L15 6L16 6L16 7L17 7L17 6L16 6L16 5L15 5L15 6L14 6L14 8L13 8L13 9L12 9L12 7L13 7L13 5L11 5L11 6L10 6L10 4L11 4L11 3ZM14 3L14 4L15 4L15 3ZM21 3L21 4L20 4L20 5L21 5L21 4L22 4L22 3ZM9 6L9 7L10 7L10 6ZM11 6L11 7L12 7L12 6ZM18 6L18 7L19 7L19 6ZM21 6L21 7L22 7L22 6ZM10 8L10 9L11 9L11 8ZM29 8L29 9L30 9L30 10L31 10L31 9L32 9L32 10L33 10L33 9L32 9L32 8L31 8L31 9L30 9L30 8ZM21 9L21 10L22 10L22 9ZM0 10L0 11L1 11L1 10ZM17 11L17 12L16 12L16 13L14 13L14 14L13 14L13 15L12 15L12 16L14 16L14 14L16 14L16 13L17 13L17 16L18 16L18 14L19 14L19 15L20 15L20 16L19 16L19 17L17 17L17 18L16 18L16 17L13 17L13 18L12 18L12 17L11 17L11 16L10 16L10 15L9 15L9 17L8 17L8 16L7 16L7 17L5 17L5 21L6 21L6 22L8 22L8 23L9 23L9 24L10 24L10 23L12 23L12 22L13 22L13 24L15 24L15 23L14 23L14 22L16 22L16 21L17 21L17 20L18 20L18 19L17 19L17 18L19 18L19 17L20 17L20 16L21 16L21 15L20 15L20 14L19 14L19 13L17 13L17 12L18 12L18 11ZM25 13L25 14L26 14L26 13ZM2 14L2 16L3 16L3 14ZM7 14L7 15L8 15L8 14ZM7 17L7 18L6 18L6 19L8 19L8 20L6 20L6 21L8 21L8 20L9 20L9 22L12 22L12 20L11 20L11 17L9 17L9 18L8 18L8 17ZM23 17L23 18L24 18L24 17ZM9 18L9 19L10 19L10 18ZM14 18L14 20L13 20L13 21L15 21L15 19L16 19L16 20L17 20L17 19L16 19L16 18ZM0 20L0 25L1 25L1 20ZM10 20L10 21L11 21L11 20ZM22 21L22 22L23 22L23 23L22 23L22 24L21 24L21 25L20 25L20 26L19 26L19 27L20 27L20 28L19 28L19 29L20 29L20 30L21 30L21 29L22 29L22 28L21 28L21 25L22 25L22 27L23 27L23 25L24 25L24 24L23 24L23 23L24 23L24 22L25 22L25 24L26 24L26 22L25 22L25 21L24 21L24 22L23 22L23 21ZM32 21L32 22L33 22L33 21ZM28 23L28 24L29 24L29 25L30 25L30 26L29 26L29 27L30 27L30 26L31 26L31 25L32 25L32 24L29 24L29 23ZM11 24L11 25L12 25L12 24ZM16 24L16 25L17 25L17 26L16 26L16 27L15 27L15 28L16 28L16 27L17 27L17 28L18 28L18 27L17 27L17 26L18 26L18 25L17 25L17 24ZM22 24L22 25L23 25L23 24ZM25 25L25 28L28 28L28 25ZM26 26L26 27L27 27L27 26ZM23 28L23 30L24 30L24 28ZM9 29L9 30L10 30L10 29ZM13 30L13 31L12 31L12 33L16 33L16 32L13 32L13 31L14 31L14 30ZM18 31L18 32L17 32L17 33L19 33L19 31ZM22 31L22 32L23 32L23 31ZM0 0L0 7L7 7L7 0ZM1 1L1 6L6 6L6 1ZM2 2L2 5L5 5L5 2ZM26 0L26 7L33 7L33 0ZM27 1L27 6L32 6L32 1ZM28 2L28 5L31 5L31 2ZM0 26L0 33L7 33L7 26ZM1 27L1 32L6 32L6 27ZM2 28L2 31L5 31L5 28Z" fill="#000000"/></g></g></svg>
