<?xml version="1.0" encoding="UTF-8"?>
<svg xmlns="http://www.w3.org/2000/svg" version="1.1" width="300" height="300" viewBox="0 0 300 300"><rect x="0" y="0" width="300" height="300" fill="#ffffff"/><g transform="scale(9.091)"><g transform="translate(0,0)"><path fill-rule="evenodd" d="M9 0L9 1L8 1L8 2L9 2L9 3L8 3L8 4L10 4L10 7L11 7L11 4L12 4L12 5L13 5L13 6L12 6L12 9L13 9L13 6L14 6L14 7L15 7L15 8L14 8L14 9L16 9L16 10L15 10L15 11L14 11L14 12L12 12L12 11L13 11L13 10L11 10L11 11L10 11L10 9L11 9L11 8L6 8L6 9L7 9L7 10L5 10L5 11L7 11L7 12L6 12L6 13L7 13L7 14L6 14L6 15L5 15L5 14L4 14L4 17L7 17L7 18L6 18L6 19L5 19L5 18L4 18L4 19L5 19L5 20L4 20L4 22L6 22L6 23L8 23L8 24L9 24L9 25L8 25L8 27L10 27L10 28L8 28L8 33L11 33L11 32L12 32L12 33L15 33L15 32L17 32L17 33L19 33L19 30L21 30L21 31L20 31L20 33L21 33L21 32L22 32L22 33L29 33L29 32L31 32L31 33L32 33L32 32L31 32L31 31L32 31L32 30L31 30L31 29L30 29L30 28L31 28L31 27L32 27L32 26L33 26L33 23L31 23L31 22L30 22L30 21L29 21L29 19L30 19L30 20L31 20L31 19L32 19L32 20L33 20L33 19L32 19L32 18L33 18L33 16L32 16L32 14L33 14L33 13L32 13L32 12L31 12L31 11L30 11L30 12L28 12L28 11L29 11L29 10L28 10L28 8L27 8L27 9L26 9L26 8L24 8L24 7L25 7L25 5L24 5L24 4L23 4L23 3L22 3L22 0L21 0L21 1L20 1L20 0L19 0L19 1L18 1L18 2L19 2L19 1L20 1L20 3L17 3L17 4L19 4L19 5L15 5L15 6L14 6L14 5L13 5L13 4L14 4L14 3L13 3L13 4L12 4L12 2L14 2L14 1L15 1L15 2L16 2L16 1L15 1L15 0L13 0L13 1L11 1L11 2L10 2L10 0ZM23 0L23 1L24 1L24 2L25 2L25 0ZM10 3L10 4L11 4L11 3ZM15 3L15 4L16 4L16 3ZM20 3L20 5L19 5L19 9L20 9L20 10L17 10L17 12L19 12L19 13L17 13L17 14L16 14L16 13L14 13L14 14L12 14L12 13L11 13L11 12L10 12L10 13L11 13L11 14L10 14L10 15L9 15L9 14L8 14L8 15L6 15L6 16L8 16L8 21L6 21L6 20L7 20L7 19L6 19L6 20L5 20L5 21L6 21L6 22L9 22L9 19L10 19L10 18L11 18L11 19L12 19L12 18L13 18L13 20L14 20L14 18L16 18L16 17L17 17L17 20L16 20L16 21L13 21L13 23L12 23L12 22L11 22L11 21L12 21L12 20L10 20L10 23L11 23L11 24L10 24L10 25L9 25L9 26L10 26L10 27L11 27L11 28L10 28L10 29L12 29L12 30L11 30L11 31L12 31L12 30L13 30L13 32L14 32L14 31L15 31L15 30L16 30L16 31L17 31L17 32L18 32L18 31L17 31L17 30L18 30L18 29L17 29L17 28L18 28L18 27L19 27L19 29L22 29L22 31L23 31L23 30L24 30L24 27L22 27L22 28L20 28L20 26L21 26L21 25L22 25L22 26L24 26L24 22L26 22L26 24L29 24L29 27L31 27L31 26L30 26L30 25L32 25L32 24L30 24L30 22L29 22L29 21L27 21L27 20L28 20L28 19L29 19L29 17L27 17L27 16L30 16L30 17L31 17L31 18L32 18L32 16L30 16L30 15L31 15L31 14L32 14L32 13L31 13L31 12L30 12L30 13L28 13L28 14L26 14L26 13L27 13L27 12L26 12L26 10L25 10L25 9L24 9L24 10L21 10L21 9L20 9L20 5L21 5L21 3ZM8 5L8 7L9 7L9 5ZM22 5L22 6L21 6L21 7L22 7L22 6L23 6L23 7L24 7L24 5ZM15 6L15 7L16 7L16 6ZM17 6L17 8L16 8L16 9L17 9L17 8L18 8L18 6ZM0 8L0 13L2 13L2 12L1 12L1 9L2 9L2 10L4 10L4 9L5 9L5 8ZM29 8L29 9L30 9L30 10L31 10L31 9L32 9L32 10L33 10L33 9L32 9L32 8L31 8L31 9L30 9L30 8ZM8 9L8 10L7 10L7 11L9 11L9 9ZM3 11L3 12L4 12L4 13L5 13L5 12L4 12L4 11ZM19 11L19 12L20 12L20 13L19 13L19 14L17 14L17 15L16 15L16 14L15 14L15 15L16 15L16 16L17 16L17 17L19 17L19 18L18 18L18 20L17 20L17 21L16 21L16 22L14 22L14 24L12 24L12 25L11 25L11 26L12 26L12 25L16 25L16 26L14 26L14 27L16 27L16 26L17 26L17 25L19 25L19 26L20 26L20 25L19 25L19 24L20 24L20 23L19 23L19 22L20 22L20 21L21 21L21 22L22 22L22 21L21 21L21 20L22 20L22 19L23 19L23 18L24 18L24 17L23 17L23 18L21 18L21 20L20 20L20 19L19 19L19 18L20 18L20 17L19 17L19 16L20 16L20 15L19 15L19 14L20 14L20 13L21 13L21 14L22 14L22 13L21 13L21 12L22 12L22 11L21 11L21 12L20 12L20 11ZM7 12L7 13L9 13L9 12ZM24 12L24 13L23 13L23 14L24 14L24 15L23 15L23 16L24 16L24 15L25 15L25 14L24 14L24 13L25 13L25 12ZM0 14L0 15L1 15L1 14ZM2 14L2 15L3 15L3 14ZM10 15L10 16L11 16L11 18L12 18L12 16L11 16L11 15ZM17 15L17 16L18 16L18 15ZM21 15L21 16L22 16L22 15ZM26 15L26 16L25 16L25 19L26 19L26 16L27 16L27 15ZM0 16L0 17L1 17L1 16ZM13 16L13 18L14 18L14 17L15 17L15 16ZM9 17L9 18L10 18L10 17ZM0 18L0 25L1 25L1 22L2 22L2 21L3 21L3 19L2 19L2 18ZM27 18L27 19L28 19L28 18ZM1 19L1 20L2 20L2 19ZM24 20L24 21L26 21L26 22L27 22L27 23L28 23L28 22L27 22L27 21L26 21L26 20ZM17 21L17 22L16 22L16 23L15 23L15 24L16 24L16 23L17 23L17 24L18 24L18 23L17 23L17 22L19 22L19 21ZM32 21L32 22L33 22L33 21ZM2 23L2 25L5 25L5 23ZM21 23L21 24L22 24L22 25L23 25L23 24L22 24L22 23ZM6 24L6 25L7 25L7 24ZM25 25L25 28L28 28L28 25ZM26 26L26 27L27 27L27 26ZM12 27L12 29L16 29L16 28L13 28L13 27ZM22 28L22 29L23 29L23 28ZM32 28L32 29L33 29L33 28ZM26 29L26 30L27 30L27 31L24 31L24 32L29 32L29 31L30 31L30 30L28 30L28 29ZM0 0L0 7L7 7L7 0ZM1 1L1 6L6 6L6 1ZM2 2L2 5L5 5L5 2ZM26 0L26 7L33 7L33 0ZM27 1L27 6L32 6L32 1ZM28 2L28 5L31 5L31 2ZM0 26L0 33L7 33L7 26ZM1 27L1 32L6 32L6 27ZM2 28L2 31L5 31L5 28Z" fill="#000000"/></g></g></svg>
